<?xml version="1.0" encoding="utf-8"?>
<!-- Svg Vector Icons : http://www.onlinewebfonts.com/icon -->
<!DOCTYPE svg PUBLIC "-//W3C//DTD SVG 1.1//EN" "http://www.w3.org/Graphics/SVG/1.1/DTD/svg11.dtd">
<svg version="1.1" xmlns="http://www.w3.org/2000/svg" xmlns:xlink="http://www.w3.org/1999/xlink" x="0px" y="0px" viewBox="0 0 1000 1000" enable-background="new 0 0 1000 1000" xml:space="preserve">
<metadata> Svg Vector Icons : http://www.onlinewebfonts.com/icon </metadata>
	<g><path d="M80,220h840v560H80V220z M10,150v700h980V150H10z M850,512.9V605H570v-95.6l80.3,80.3l24.7-24.7l24.7,24.7l65.8-65.8C788.4,501.1,823.2,497.5,850,512.9z M570,325h280v138.4c-26.8-15.5-61.6-11.8-84.5,11.1L675,565.1l-105-105V325z M535,290v350h350V290H535z M745,395c0,19.3,15.7,35,35,35s35-15.7,35-35s-15.7-35-35-35S745,375.7,745,395z M430,570v35H150v-60.6l55.5-55.4c27.3-27.3,71.7-27.3,99,0l110.1,110C423.9,592.8,430,582.1,430,570z M150,325h280v240.1L304.5,439.5c-27.3-27.3-71.7-27.3-99,0L150,495.1V325z M115,290v350h350V290H115z M325,395c0,19.3,15.7,35,35,35s35-15.7,35-35s-15.7-35-35-35S325,375.7,325,395z M570,710v35h70v-35H570z M465,710v35h70v-35H465z M360,710v35h70v-35H360z"/></g>
</svg>
