<?xml version="1.0" encoding="utf-8"?>
<!-- Generator: Adobe Illustrator 23.0.2, SVG Export Plug-In . SVG Version: 6.00 Build 0)  -->
<svg version="1.1" id="Layer_1" xmlns="http://www.w3.org/2000/svg" xmlns:xlink="http://www.w3.org/1999/xlink" x="0px" y="0px"
	 viewBox="0 0 27 27" style="enable-background:new 0 0 27 27;" xml:space="preserve">
<style type="text/css">
	.st0{fill-rule:evenodd;clip-rule:evenodd;fill:#504F4F;stroke:#504F4F;stroke-width:7;}
	.st1{fill-rule:evenodd;clip-rule:evenodd;fill:#FFFFFF;stroke:#504F4F;}
</style>
<title>Bottom</title>
<desc>Created with Sketch.</desc>
<g id="Page-1">
	<g id="Icons" transform="translate(-173.000000, -30.000000)">
		
			<g id="Bottom" transform="translate(216.000000, 73.000000) scale(1, -1) translate(-216.000000, -73.000000) translate(177.000000, 34.000000)">
			<path id="Rectangle" class="st0" d="M1.6,58.5h15.9c1.1,0,2.1,0.9,2.1,2.1v15.9c0,1.1-0.9,2.1-2.1,2.1H1.6
				c-1.1,0-2.1-0.9-2.1-2.1V60.6C-0.5,59.4,0.4,58.5,1.6,58.5z"/>
			<path class="st1" d="M1.6,58.5h15.9c1.1,0,2.1,0.9,2.1,2.1v1.8l0,0h-20v-1.8C-0.5,59.4,0.4,58.5,1.6,58.5z"/>
		</g>
	</g>
</g>
</svg>
